<?xml version="1.0" standalone="no"?>
<!DOCTYPE svg PUBLIC "-//W3C//DTD SVG 20010904//EN"
 "http://www.w3.org/TR/2001/REC-SVG-20010904/DTD/svg10.dtd">
<svg version="1.0" xmlns="http://www.w3.org/2000/svg"
 width="221.000000pt" height="221.000000pt" viewBox="0 0 221.000000 221.000000"
 preserveAspectRatio="xMidYMid meet">
<metadata>
Created by potrace 1.14, written by Peter Selinger 2001-2017
</metadata>
<g transform="translate(0.000000,221.000000) scale(0.100000,-0.100000)"
fill="#000000" stroke="none">
<path d="M1020 1930 l0 -40 -40 0 -40 0 0 -40 c0 -38 -2 -40 -29 -40 -50 0
-61 -9 -61 -51 0 -38 -1 -39 -35 -39 l-35 0 0 -170 0 -170 35 0 35 0 0 -75 0
-75 -70 0 -70 0 0 80 0 80 -39 0 c-40 0 -40 0 -43 43 l-3 42 -212 3 -213 2 0
-45 0 -45 -45 0 -46 0 3 -87 3 -88 43 -3 42 -3 0 -45 0 -44 130 0 130 0 0 55
0 55 -40 0 c-38 0 -40 2 -40 30 l0 30 75 0 74 0 3 -82 3 -83 38 -3 c35 -3 37
-5 37 -37 0 -21 6 -35 16 -39 9 -3 63 -6 120 -6 l104 0 0 -30 0 -29 -77 -3
-78 -3 -3 -37 c-3 -37 -4 -38 -43 -38 l-39 0 0 -45 0 -45 -40 0 -40 0 0 -135
0 -135 39 0 c39 0 40 -1 43 -37 l3 -38 70 -3 c106 -5 117 0 113 51 -3 42 -3
42 -45 45 l-43 3 0 74 0 74 43 3 c42 3 42 3 45 46 l3 42 69 0 70 0 2 -167 3
-168 38 -3 c34 -3 37 -5 37 -36 0 -47 15 -56 97 -56 71 0 73 -1 73 -25 0 -22
-4 -25 -40 -25 l-40 0 0 -50 0 -50 90 0 90 0 0 130 0 130 -40 0 -40 0 0 40 0
40 -45 0 -45 0 0 75 0 75 45 0 45 0 0 45 0 45 40 0 40 0 0 80 0 80 35 0 c34 0
35 -1 35 -40 l0 -40 120 0 120 0 0 -40 0 -40 45 0 45 0 0 -74 0 -75 -42 -3
-43 -3 0 -130 0 -130 90 0 90 0 3 48 3 47 -45 0 c-44 0 -46 1 -46 29 0 28 3
30 43 33 42 3 42 3 45 45 3 43 3 43 43 43 l40 0 -3 133 -3 132 -37 3 c-35 3
-37 5 -40 40 l-3 37 -82 3 -83 3 0 38 c0 47 -8 51 -101 51 -67 0 -69 1 -69 25
l0 25 125 0 125 0 0 45 0 45 45 0 45 0 0 40 0 40 40 0 40 0 0 85 0 85 35 0 35
0 0 -85 0 -85 45 0 45 0 0 45 0 45 45 0 46 0 -3 88 -3 87 -42 3 c-43 3 -43 3
-43 42 0 49 -8 52 -150 48 l-105 -3 -3 -42 c-3 -43 -3 -43 -43 -43 l-39 0 0
-85 0 -85 -45 0 -45 0 0 -40 0 -40 -75 0 -75 0 0 35 c0 35 0 35 45 35 l45 0 0
80 0 80 40 0 40 0 0 135 0 135 -40 0 -40 0 0 40 0 40 -79 0 -80 0 -3 38 -3 37
-177 3 -178 2 0 -40z m90 -960 l0 -70 -35 0 -35 0 0 70 0 70 35 0 35 0 0 -70z
m-90 -125 c0 -32 -2 -35 -30 -35 -28 0 -30 3 -30 35 0 32 2 35 30 35 28 0 30
-3 30 -35z"/>
</g>
</svg>
